<svg xmlns="http://www.w3.org/2000/svg" viewBox="0 0 48 48"><path fill="#607d8b" d="M20,11c-1.7,1.13-3.22,2.27-4.57,3.37c-4.46,3.6-7.04,6.77-8,8.04C7.2,22.7,7.07,22.9,7.01,22.97	C7,22.99,7,23,7,23S4,18,4,4C4,4,14,4,20,11z"/><path fill="#ffab91" d="M15.43,14.37c-4.46,3.6-7.04,6.77-8,8.04c-0.32,0.34-0.4,0.5-0.42,0.56C7,22.99,7,23,7,23S4,18,4,4	C4,4,12.01,5.78,15.43,14.37z"/><path fill="#607d8b" d="M44,4c0,14-3,19-3,19s0-0.01-0.01-0.03c-0.06-0.07-0.19-0.27-0.42-0.56c-0.96-1.27-3.54-4.44-8-8.04	C31.22,13.27,29.7,12.13,28,11C34,4,44,4,44,4z"/><path fill="#ffab91" d="M44,4c0,14-3,19-3,19s0-0.01-0.01-0.03c-0.02-0.06-0.1-0.22-0.42-0.56c-0.96-1.27-3.54-4.44-8-8.04	C35.99,5.78,44,4,44,4z"/><path fill="#607d8b" d="M44,27c0,10-11,16-20,16S4,37,4,27C4,16.507,12.954,8,24,8S44,16.507,44,27z"/><path fill="#cfd8dc" d="M33,37c0,3.866-4.012,7-9,7s-9-3.134-9-7s4.012-7,9-7S33,33.134,33,37z"/><path fill="#b0bec5" d="M23.969,44c2.151,0,4.124-0.585,5.675-1.558C27.707,41.89,24.742,40.816,24,39.25	c-0.747,1.578-3.75,2.656-5.686,3.204C19.862,43.419,21.827,44,23.969,44z"/><path fill="#607d8b" d="M19.628,43.12c1.504-0.5,3.249-1.237,4.372-2.27c1.123,1.034,2.868,1.77,4.372,2.27	c0.87-0.376,1.645-0.864,2.306-1.434c-2.202-0.544-4.944-1.595-5.678-2.696V33h-2v5.99c-0.734,1.102-3.476,2.152-5.678,2.696	C17.983,42.256,18.758,42.744,19.628,43.12z"/><path fill="#78909c" d="M26,27c0,2,0.846,3.467,0.846,3.467l-5.692-0.002C21.155,30.465,22,29,22,27	c0-8.2-5-13.19-11.53-13.99C14.03,9.9,18.78,8,24,8s9.97,1.9,13.53,5.01C30.99,13.81,26,18.8,26,27z"/><path d="M19,28c0,0-1.25,1-3.5,1c-1.75,0-5.25-0.88-5.5-6c0,0,0.97-0.77,2.74-0.96C12.98,22.01,13.23,22,13.5,22	s0.58,0.02,0.92,0.07c0.41,0.07,0.86,0.19,1.31,0.38c0.81,0.35,1.63,0.93,2.24,1.9C18.53,25.22,18.93,26.41,19,28z"/><path fill="#aeea00" d="M17.97,24.35C17.81,25.84,16.54,27,15,27c-1.66,0-3-1.34-3-3c0-0.75,0.28-1.44,0.74-1.96	C12.98,22.01,13.23,22,13.5,22C14.71,22,16.74,22.42,17.97,24.35z"/><path d="M16,24c0,1.66-1,3-1,3s-1-1.34-1-3c0-0.74,0.2-1.41,0.42-1.93c0.41,0.07,0.86,0.19,1.31,0.38C15.88,22.9,16,23.43,16,24z"/><path d="M29,28c0,0,1.25,1,3.5,1c1.75,0,5.25-0.88,5.5-6c0,0-0.97-0.77-2.74-0.96C35.02,22.01,34.77,22,34.5,22	s-0.58,0.02-0.92,0.07c-0.41,0.07-0.86,0.19-1.31,0.38c-0.81,0.35-1.63,0.93-2.24,1.9C29.47,25.22,29.07,26.41,29,28z"/><path fill="#aeea00" d="M30.03,24.35C30.19,25.84,31.46,27,33,27c1.66,0,3-1.34,3-3c0-0.75-0.28-1.44-0.74-1.96	C35.02,22.01,34.77,22,34.5,22C33.29,22,31.26,22.42,30.03,24.35z"/><path d="M32,24c0,1.66,1,3,1,3s1-1.34,1-3c0-0.74-0.2-1.41-0.42-1.93c-0.41,0.07-0.86,0.19-1.31,0.38C32.12,22.9,32,23.43,32,24z"/><path fill="#455a64" d="M26,30c-0.143,0-3.857,0-4,0c-0.552,0-1,0.448-1,1s0.448,1,1,1s1,0.448,1,1c0,1,1,1,1,1s1,0,1-1	c0-0.552,0.448-1,1-1s1-0.448,1-1S26.552,30,26,30z"/></svg>