<svg xmlns="http://www.w3.org/2000/svg" viewBox="0 0 48 48"><path fill="none" stroke="#455a64" stroke-linecap="round" stroke-linejoin="round" stroke-miterlimit="10" stroke-width="2" d="M35,16	c-9,0-25-3-29-12"/><path fill="#b0bec5" d="M43,31.004V31l0,0c0-0.776-0.454-1.513-1.212-1.838l-7-3c-1.015-0.434-2.19,0.036-2.626,1.05	c-0.435,1.016,0.035,2.191,1.051,2.626L41,33.149V36c1.105,0,2-0.896,2-2v-2.984C43,31.012,43,31.008,43,31.004z"/><path fill="#b0bec5" d="M15,33v7.005c0,0,0,1.995,2,1.995s4,0,4,0s0-2-2-2v-4L15,33z"/><path fill="#b0bec5" d="M25,30c-2,3-6,6-6,6l-4-3c0,0,3-4,3-9L25,30z"/><path fill="#cfd8dc" d="M28,30v10.005c0,0,0,1.995,2,1.995s4,0,4,0s0-2-2-2V30H28z"/><path fill="#cfd8dc" d="M8.96,32.081l-0.828,3.913c1.957,0.414,1.543,2.371,1.543,2.371s-1.957-0.414-3.913-0.828	s-1.545-2.361-1.545-2.361L6,28c0,0,7.422,3.521,10,1C13.422,31.521,8.96,32.081,8.96,32.081z"/><path fill="#cfd8dc" d="M43.82,11.91c-0.39,1.45-1.51,3.26-4.65,3.76c0,0,1.82-5.04-0.15-7.79c0.83,0.96,2.44,1.53,3.6,1.83	C43.41,9.92,44,10,44,10S44.11,10.86,43.82,11.91z"/><path fill="#cfd8dc" d="M37,18.85V19c0,0,0,5,0,6c0,3-3,5-4,6l-4,1c-0.2,0-0.4-0.01-0.6-0.02c-0.16-0.01-0.32-0.03-0.48-0.05	c-2.24-0.33-4.26-1.51-4.79-1.84C23.05,30.03,23,30,23,30s-1.53-3.29-3-3l-6.39-7.12C15.07,18.39,17,18,17,18h9l3-2l0.56-2.24	c0.17,0.21,0.5,0.63,0.72,0.87C32.04,16.61,34.39,18.35,37,18.85z"/><path fill="#cc6c25" d="M16.594,19.153L20,25l-2,3c0,0-1.974,1.238-2.994,1.904C11.989,31.874,6,28,6,28	s3.636-1.344,5.731-4.248c0.04-0.036,0.081-0.095,0.114-0.15c0.533-0.737,1.017-1.574,1.406-2.492	c0.106-0.255,0.229-0.494,0.36-0.714c0.038-0.068,0.385-0.253,0.394-0.257L16.594,19.153z"/><path fill="#cc6c25" d="M39.114,7.869c-0.065-0.091-0.14-0.18-0.214-0.26C37.063,5.036,34,5,34,5	c-0.167,0-0.361,0.028-0.569,0.074c-1.444,0.321-2.636,1.337-3.298,2.66l0,0c-0.088,0.177-0.162,0.361-0.22,0.55l-0.137,0.449	c-0.133,0.435-0.235,0.875-0.301,1.325C29.263,11.507,29,14,29,14s-0.083-0.078,0,0c0.201,0.181,1.745,2.798,2,3	c2.049,1.679,3.344,1.917,6,2c-0.042-0.267,0.412-1.726,0.433-1.973c0.002-0.051,0.004-0.102,0.017-0.145	c0.035-0.228,0.113-0.433,0.287-0.613c0.033-0.046,0.078-0.083,0.123-0.121c0.27-0.215,0.678-0.381,1.311-0.482	C39.171,15.667,41.218,10.592,39.114,7.869z"/><path fill="#cc6c25" d="M37,18.85V19c0,0,0,1.42,0,2.89V25c0,6.1-4.76,7-8,7c-0.2,0-0.4-0.01-0.6-0.02	c-0.16-0.01-0.32-0.03-0.48-0.05c-0.76-0.1-1.47-0.29-2.1-0.51c-0.35-0.13-0.68-0.27-0.98-0.4L24,30.6	c-0.08-0.05-0.16-0.09-0.23-0.12c-0.1-0.06-0.18-0.11-0.26-0.16c-0.16-0.1-0.29-0.18-0.38-0.23c-0.01-0.01-0.01-0.02-0.02-0.02	c-0.05-0.03-0.08-0.05-0.1-0.06C23,30,23,30,23,30s-0.02-0.01-0.05-0.04c-0.31-0.21-2.14-1.45-3.65-1.86l-0.85-1.22L14,20.45	l-0.39-0.57c1.28-1.3,2.91-1.77,3.3-1.86C16.97,18,17,18,17,18h9l2.04-1.36L29,16l0.45-2.38c0,0,0.53,0.68,0.83,1.01	C32.04,16.61,34.39,18.35,37,18.85z"/><path fill="#3e2723" d="M38.814,8.933c0.448,0.325,0.547,0.949,0.222,1.396s-1.64,0.558-1.64,0.558s-0.304-1.284,0.021-1.732	S38.367,8.608,38.814,8.933z"/><path fill="#5d4037" d="M43.82,11.91l-1.02-0.75c-0.45-0.32-0.55-0.95-0.22-1.39l0.04-0.06C43.41,9.92,44,10,44,10	S44.11,10.86,43.82,11.91z"/><path fill="#6d350f" d="M31,25c0,3-2.74,5.33-5.18,6.42c-0.84-0.3-1.55-0.67-2.05-0.94l-0.26-0.16	c-0.16-0.1-0.29-0.18-0.38-0.23c-0.01-0.01-0.01-0.02-0.02-0.02c-0.05-0.03-0.08-0.05-0.1-0.06C23,30,23,30,23,30	s-0.02-0.01-0.05-0.04c-0.31-0.21-2.14-1.45-3.65-1.86c-0.49-0.15-0.94-0.2-1.3-0.1c0.18-0.37,0.33-0.74,0.45-1.12	c0.91-2.92-0.12-5.98-2.51-6.53c-0.57-0.12-1.22-0.1-1.94,0.1c-0.06,0.01-0.53,0.2-0.53,0.2c-0.439-0.115-3.599,0.937-3.599,0.937	C9.458,20.745,15,18,15,18h11l3-3l1,1l0.58,3.03L31,25z"/><path fill="#d32f2f" d="M37,18.85V19c0,0,0,1.42,0,2.89c-2.53-0.33-4.69-1.51-6.42-2.86c-1-0.78-1.85-1.62-2.54-2.39	c-0.1-0.12-0.21-0.25-0.31-0.37L29,14C29,14,34.39,18.35,37,18.85z"/><path fill="#894415" d="M31,9.867l-0.029,3.972c-0.014,1.902,0.786,3.768,2.306,4.912c0.387,0.291,0.813,0.534,1.27,0.678	c2.132,0.673,3.95-0.629,3.479-3.592l0,0c-0.207-1.299-0.713-2.531-1.479-3.6l-2.742-3.828L31,9.867z"/><path fill="#6d350f" d="M4,23c-0.552,0-1-0.447-1-1s0.448-1,1-1c2.463,0,4.141-0.8,5.764-1.572	C11.237,18.726,12.76,18,14.692,18H17c0.552,0,1,0.447,1,1s-0.448,1-1,1h-2.308c-1.48,0-2.68,0.571-4.068,1.232	C8.886,22.062,6.915,23,4,23z"/><path fill="#cc6c25" d="M25.82,31.42l0.247,0.066C27.207,31.789,28,32.821,28,34l0,0h4l1-4L25.82,31.42z"/></svg>