<svg xmlns="http://www.w3.org/2000/svg" viewBox="0 0 48 48"><path fill="#616161" d="M30.5 4A3.5 3.5 0 1 0 30.5 11A3.5 3.5 0 1 0 30.5 4Z"/><path fill="#9e9e9e" d="M38.001,26c-0.367,0-0.72-0.202-0.896-0.553L36.882,25H36c-0.553,0-1-0.447-1-1s0.447-1,1-1h0.882 c0.764,0,1.449,0.424,1.789,1.106l0.224,0.446c0.247,0.494,0.047,1.095-0.447,1.342C38.304,25.966,38.151,26,38.001,26z"/><path fill="#bdbdbd" d="M37.001,30c-0.367,0-0.72-0.202-0.896-0.553L35.882,29h-2.007c-0.553,0-1-0.447-1-1s0.447-1,1-1 h2.007c0.764,0,1.449,0.424,1.789,1.106l0.224,0.446c0.247,0.494,0.047,1.095-0.447,1.342C37.304,29.966,37.151,30,37.001,30z"/><path fill="#616161" d="M31,26c0,0,1.18,0,2.375,0c1,0,2.375-0.75,2.625-1v-2c-2.5,0-4-2-4-2h-1V26z"/><path fill="#757575" d="M43.969,7H33c-3.755,0-5.991,2.116-6,3.989c0,0.007-0.003,0.014-0.008,0.019 c0,0-2.128,1.945-8.545,3.527c0,0-0.017,0.018-0.022,0.024C11.845,16.351,7,22.352,7,29.5c0,1.25,0,1.986,0,2 c0,4.142,3.358,7.5,7.5,7.5c0,0,12.5-0.016,12.5-0.034c-0.018-1.617-1.315-2.927-2.927-2.965C24.046,36,22.999,36.012,23.023,36 c3.945-1.949,4.863-7.265,4.977-9c0,0,1.5,2,6,2c0.012,0,1.008-1.997,1-2c-1.5-0.5-3-2.125-3-5c0-3,0.832-4.611,2.005-5.002 C40,15,44,10.999,44,9V7.031C44,7.014,43.986,7,43.969,7z"/><path d="M36.624 8.875A1 1 0 1 0 36.624 10.875A1 1 0 1 0 36.624 8.875Z" transform="rotate(-46.044 36.624 9.874)"/><path fill="#9e9e9e" d="M29.68,5.32c-1.76-1.76-4.6-1.76-6.36,0c-1.76,1.76-1.76,4.6,0,6.36c1.27,1.27,3.1,1.62,4.68,1.07 c0-0.8,0.17-1.61,0.51-2.35c0.18-0.4,0.41-0.77,0.69-1.11c0.46-0.55,1.05-1,1.77-1.28C30.87,7.03,30.43,6.07,29.68,5.32z"/><path fill="#ffcdd2" d="M29.2 9.29c-.28.34-.51.71-.69 1.11-.79.05-1.85.01-2.7-.47-.76-.41-1.03-1.37-.62-2.12.42-.76 1.37-1.03 2.13-.61C28.2 7.69 28.82 8.59 29.2 9.29zM44 7A1 1 0 1 0 44 9 1 1 0 1 0 44 7z"/><path fill="#757575" d="M22.5,43c-0.09,0-3.5,0-3.5,0c-7,0-13-1.375-13-3.75c0-1.75,3.125-3.75,3.125-3.75L10,35.25V31H7 c0,2.25-4,5-4,8c0,2.25,0.5,5,15.5,5c0.236,0,3.91,0,4,0c0.276,0,0.5-0.224,0.5-0.5C23,43.224,22.776,43,22.5,43z"/></svg>